<svg width="50" height="50" viewBox="0 0 50 50" fill="none" xmlns="http://www.w3.org/2000/svg">
<rect x="0.5" y="0.5" width="49" height="49" rx="24.5" fill="white"/>
<rect x="0.5" y="0.5" width="49" height="49" rx="24.5" stroke="white"/>
<g clip-path="url(#clip0_565_2179)">
<path d="M26.62 36.9531H22.7691C22.1259 36.9531 21.6026 36.4309 21.6026 35.7889V27.12H19.3559C18.7127 27.12 18.1895 26.5976 18.1895 25.9558V22.2412C18.1895 21.5992 18.7127 21.077 19.3559 21.077H21.6026V19.2168C21.6026 17.3724 22.1829 15.8032 23.2806 14.6791C24.3832 13.5499 25.9241 12.9531 27.7367 12.9531L30.6736 12.9579C31.3157 12.959 31.8381 13.4812 31.8381 14.1221V17.571C31.8381 18.213 31.315 18.7352 30.672 18.7352L28.6946 18.736C28.0915 18.736 27.938 18.8566 27.9051 18.8936C27.851 18.955 27.7866 19.1284 27.7866 19.6072V21.0768H30.5234C30.7294 21.0768 30.929 21.1275 31.1005 21.2231C31.4706 21.4294 31.7006 21.8196 31.7006 22.2413L31.6992 25.956C31.6992 26.5976 31.1759 27.1198 30.5327 27.1198H27.7866V35.7889C27.7866 36.4309 27.2632 36.9531 26.62 36.9531ZM23.0123 35.5461H26.3767V26.4901C26.3767 26.0615 26.7262 25.7128 27.1555 25.7128H30.2894L30.2907 22.4839H27.1553C26.726 22.4839 26.3767 22.1353 26.3767 21.7067V19.6072C26.3767 19.0575 26.4327 18.4324 26.8484 17.9625C27.3507 17.3945 28.1424 17.329 28.6942 17.329L30.4283 17.3282V14.3645L27.7356 14.3601C24.8226 14.3601 23.0123 16.2212 23.0123 19.2168V21.7067C23.0123 22.1351 22.663 22.4839 22.2337 22.4839H19.5992V25.7128H22.2337C22.663 25.7128 23.0123 26.0615 23.0123 26.4901V35.5461Z" fill="#0B280D"/>
</g>
<defs>
<clipPath id="clip0_565_2179">
<rect width="24" height="24" fill="white" transform="translate(13 13)"/>
</clipPath>
</defs>
</svg>
