<svg width="50" height="50" viewBox="0 0 50 50" fill="none" xmlns="http://www.w3.org/2000/svg">
<rect x="0.5" y="0.5" width="49" height="49" rx="24.5" fill="white"/>
<rect x="0.5" y="0.5" width="49" height="49" rx="24.5" stroke="white"/>
<path d="M31.1572 16.4043H18.9697C17.5459 16.4043 16.3916 17.5586 16.3916 18.9824V31.1699C16.3916 32.5938 17.5459 33.748 18.9697 33.748H31.1572C32.5811 33.748 33.7354 32.5938 33.7354 31.1699V18.9824C33.7354 17.5586 32.5811 16.4043 31.1572 16.4043ZM32.7979 31.1699C32.7979 32.076 32.0633 32.8105 31.1572 32.8105H18.9697C18.0636 32.8105 17.3291 32.076 17.3291 31.1699V18.9824C17.3291 18.0763 18.0636 17.3418 18.9697 17.3418H31.1572C32.0633 17.3418 32.7979 18.0763 32.7979 18.9824V31.1699Z" fill="#0B280D"/>
<path d="M25.0635 20.1543C22.3496 20.1543 20.1416 22.3622 20.1416 25.0762C20.1416 27.79 22.3496 29.998 25.0635 29.998C27.7774 29.998 29.9854 27.79 29.9854 25.0762C29.9854 22.3622 27.7774 20.1543 25.0635 20.1543ZM25.0635 29.0605C22.8664 29.0605 21.0791 27.2731 21.0791 25.0762C21.0791 22.8791 22.8665 21.0918 25.0635 21.0918C27.2605 21.0918 29.0479 22.8792 29.0479 25.0762C29.0479 27.2731 27.2605 29.0605 25.0635 29.0605Z" fill="#0B280D"/>
<path d="M30.2197 18.2793C29.3151 18.2793 28.5791 19.0153 28.5791 19.9199C28.5791 20.8246 29.3151 21.5605 30.2197 21.5605C31.1244 21.5605 31.8604 20.8246 31.8604 19.9199C31.8604 19.0153 31.1244 18.2793 30.2197 18.2793ZM30.2197 20.623C29.832 20.623 29.5166 20.3076 29.5166 19.9199C29.5166 19.5322 29.832 19.2168 30.2197 19.2168C30.6074 19.2168 30.9229 19.5322 30.9229 19.9199C30.9229 20.3076 30.6075 20.623 30.2197 20.623Z" fill="#0B280D"/>
</svg>
